<svg width="94" height="23" viewBox="0 0 94 23" fill="none" xmlns="http://www.w3.org/2000/svg">
<path d="M0.608 9.16C0.608 11.784 2.176 13.192 4.128 13.192C5.328 13.192 6.24 12.744 6.688 11.88H6.752V13H8.72V1.288H6.656V3.688C6.656 4.216 6.656 5.288 6.752 6.312H6.688C6.24 5.448 5.408 5 4.256 5C2.24 5 0.608 6.536 0.608 9.16ZM2.736 9.16C2.736 7.592 3.52 6.568 4.688 6.568C5.84 6.568 6.656 7.528 6.656 9.096V9.224C6.608 10.712 5.808 11.624 4.688 11.624C3.52 11.624 2.736 10.728 2.736 9.16ZM10.8997 9.128C10.8997 11.736 12.4037 13.192 14.9797 13.192C17.0598 13.192 18.4517 12.024 18.6917 10.632H16.6918C16.5317 11.128 16.0357 11.688 15.0117 11.688C13.8437 11.688 13.1077 10.872 13.0117 9.464H18.7717V8.888C18.7717 6.408 17.2838 5 14.9477 5C12.5637 5 10.8997 6.6 10.8997 9.128ZM14.9477 6.488C15.9557 6.488 16.5317 7.016 16.6757 8.184H13.0757C13.3157 7.08 13.9877 6.488 14.9477 6.488ZM20.955 13H23.019V8.888C23.019 7.448 23.787 6.6 24.811 6.6C25.723 6.6 26.331 7.08 26.331 8.52V13H28.395V8.264C28.395 5.832 26.987 5 25.387 5C24.299 5 23.435 5.448 22.987 6.312H22.923V5.192H20.955V13ZM30.9491 3.208H33.1411V1.288H30.9491V3.208ZM31.0131 13H33.0771V5.192H31.0131V13ZM35.774 13H38.094V10.76H35.774V13ZM40.1799 9.16C40.1799 11.784 41.7479 13.192 43.6999 13.192C44.8999 13.192 45.8119 12.744 46.2599 11.88H46.3239V13H48.2919V1.288H46.2279V3.688C46.2279 4.216 46.2279 5.288 46.3239 6.312H46.2599C45.8119 5.448 44.9799 5 43.8279 5C41.8119 5 40.1799 6.536 40.1799 9.16ZM42.3079 9.16C42.3079 7.592 43.0919 6.568 44.2599 6.568C45.4119 6.568 46.2279 7.528 46.2279 9.096V9.224C46.1799 10.712 45.3799 11.624 44.2599 11.624C43.0919 11.624 42.3079 10.728 42.3079 9.16ZM50.4716 9.128C50.4716 11.736 51.9756 13.192 54.5516 13.192C56.6316 13.192 58.0236 12.024 58.2636 10.632H56.2636C56.1036 11.128 55.6076 11.688 54.5836 11.688C53.4156 11.688 52.6796 10.872 52.5836 9.464H58.3436V8.888C58.3436 6.408 56.8556 5 54.5196 5C52.1356 5 50.4716 6.6 50.4716 9.128ZM54.5196 6.488C55.5276 6.488 56.1036 7.016 56.2476 8.184H52.6476C52.8876 7.08 53.5596 6.488 54.5196 6.488ZM60.0134 10.76C60.0134 12.424 61.5014 13.192 63.5814 13.192C65.7414 13.192 67.2774 12.344 67.2774 10.584C67.2774 9.08 66.1094 8.584 64.8454 8.376L63.4374 8.152C62.5254 8.008 62.2054 7.768 62.2054 7.272C62.2054 6.696 62.7974 6.36 63.6454 6.36C64.4774 6.36 65.1654 6.648 65.1654 7.368H67.0694C67.0694 5.768 65.6294 5 63.6614 5C61.6934 5 60.2214 5.896 60.2214 7.544C60.2214 9.016 61.3094 9.544 62.6534 9.752L64.0774 9.976C64.8294 10.104 65.2294 10.312 65.2294 10.856C65.2294 11.48 64.6534 11.832 63.5814 11.832C62.7814 11.832 61.9494 11.56 61.9494 10.76H60.0134ZM69.4429 3.208H71.6349V1.288H69.4429V3.208ZM69.5069 13H71.5709V5.192H69.5069V13ZM73.9957 13.96C74.0597 15.784 75.5477 16.648 77.7397 16.648C80.2358 16.648 81.8837 15.512 81.8837 12.584V5.192H79.9158V6.312H79.8517C79.4037 5.448 78.5718 5 77.4197 5C75.4037 5 73.7717 6.536 73.7717 9.16C73.7717 11.784 75.3397 13.192 77.2917 13.192C78.4917 13.192 79.4037 12.744 79.8517 11.88H79.9158V12.584C79.9158 14.472 79.1318 15.208 77.7397 15.208C76.6837 15.208 75.9637 14.712 75.9317 13.96H73.9957ZM75.8997 9.16C75.8997 7.592 76.6837 6.568 77.8517 6.568C78.9717 6.568 79.7717 7.48 79.8197 8.984V9.096C79.8197 10.664 79.0037 11.624 77.8517 11.624C76.6837 11.624 75.8997 10.728 75.8997 9.16ZM84.6075 13H86.6715V8.888C86.6715 7.448 87.4395 6.6 88.4635 6.6C89.3755 6.6 89.9835 7.08 89.9835 8.52V13H92.0475V8.264C92.0475 5.832 90.6395 5 89.0395 5C87.9515 5 87.0875 5.448 86.6395 6.312H86.5755V5.192H84.6075V13Z" fill="#2F3135"/>
<rect y="19" width="94" height="4" fill="#2F3135"/>
</svg>
